#!OML:ASF I:\Actors\actors\Patient Classification 2\Patient 1\Session 1\actor1.ASF
:FULLY-SPECIFIED
:DEGREES
308
root -0.765824 18.7324 6.12618 4.3885 -1.92718 -4.29522
lowerback 6.44554 1.44541 5.22928
upperback -2.41247 2.40499 0.121186
thorax -5.93632 0.989244 -3.08075
lowerneck -8.09282 -8.91408 -7.11115
upperneck 6.52333 -11.8947 8.38427
head 4.19661 -5.67168 2.90454
rclavicle 1.37845e-014 6.75868e-015
rhumerus 11.0126 -11.8609 -41.8208
rradius 92.2438
rwrist 8.27477
rhand -38.4971 -38.9482
rfingers 7.12502
rthumb -11.5187 -68.6117
lclavicle 1.37845e-014 6.75868e-015
lhumerus -46.7171 -4.94912 87.4327
lradius 46.5013
lwrist -3.97845
lhand -1.12395 -23.1085
lfingers 7.12502
lthumb 24.5134 5.34258
rfemur 0 0 0
rtibia 0
rfoot 0 0
rtoes 0
lfemur -7.01367 -5.85771 -9.42739
ltibia 22.8541
lfoot -23.7511 13.935
ltoes -55.8471
309
root -0.77253 18.7329 6.12928 4.42951 -1.63229 -4.36434
lowerback 6.31963 1.34835 5.25395
upperback -2.43423 2.2735 0.175307
thorax -5.9005 0.925317 -3.01988
lowerneck -7.64738 -9.17865 -7.40005
upperneck 6.25469 -12.2265 8.36822
head 4.08365 -5.85826 2.93955
rclavicle -1.29148e-014 2.24627e-014
rhumerus 10.6556 -11.62 -42.1556
rradius 92.624
rwrist 7.70908
rhand -38.2302 -38.8879
rfingers 7.12502
rthumb -11.2613 -68.5657
lclavicle -1.29148e-014 2.24627e-014
lhumerus -46.645 -4.45547 87.2665
lradius 46.6764
lwrist -3.53439
lhand -2.73199 -24.0454
lfingers 7.12502
lthumb 22.9712 4.60591
rfemur 0 0 0
rtibia 0
rfoot 0 0
rtoes 0
lfemur -7.16442 -5.9959 -9.29786
ltibia 22.9069
lfoot -23.7079 13.8551
ltoes -55.8198
310
root -0.778643 18.7325 6.13423 4.41646 -1.31331 -4.36434
lowerback 6.19341 1.20686 5.18718
upperback -2.43232 2.07356 0.225505
thorax -5.84784 0.831897 -2.90465
lowerneck -7.08241 -9.53163 -7.85884
upperneck 5.94045 -12.6808 8.48042
head 3.96756 -6.10657 3.03512
rclavicle -5.65294e-015 7.55382e-015
rhumerus 10.2957 -11.186 -42.6857
rradius 93.0242
rwrist 6.95594
rhand -38.1262 -38.5906
rfingers 7.12502
rthumb -11.161 -68.2738
lclavicle -5.65294e-015 7.55382e-015
lhumerus -46.6268 -3.94876 87.1231
lradius 46.8664
lwrist -3.0808
lhand -3.83787 -24.2715
lfingers 7.12502
lthumb 21.9096 4.50792
rfemur 0 0 0
rtibia 0
rfoot 0 0
rtoes 0
lfemur -7.25471 -6.13921 -9.25525
ltibia 22.9604
lfoot -23.6702 13.7612
ltoes -55.8261
311
root -0.784315 18.7316 6.1385 4.35529 -1.01078 -4.2569
lowerback 6.11171 1.04874 5.03365
upperback -2.42652 1.84346 0.216327
thorax -5.81851 0.724958 -2.80153
lowerneck -6.39452 -10.0101 -8.4623
upperneck 5.64942 -13.322 8.7511
head 3.87782 -6.44641 3.18934
rclavicle -5.41688e-015 9.14409e-015
rhumerus 9.85968 -10.6967 -43.5239
rradius 93.49
rwrist 6.24367
rhand -37.991 -38.1617
rfingers 7.12502
rthumb -11.0306 -67.8518
lclavicle -5.41688e-015 9.14409e-015
lhumerus -46.7367 -3.6864 87.1081
lradius 47.2621
lwrist -2.21399
lhand -4.67323 -23.8023
lfingers 7.12502
lthumb 21.1073 5.06881
rfemur 0 0 0
rtibia 0
rfoot 0 0
rtoes 0
lfemur -7.30369 -6.14115 -9.33407
ltibia 23.0231
lfoot -23.5582 13.6195
ltoes -55.9373
312
root -0.789244 18.7301 6.14216 4.25534 -0.799901 -4.21296
lowerback 6.07847 0.898154 4.97681
upperback -2.41684 1.63329 0.183329
thorax -5.80731 0.623194 -2.78108
lowerneck -5.61763 -10.614 -9.04979
upperneck 5.38651 -14.1498 9.00027
head 3.80174 -6.88121 3.32301
rclavicle 2.0568e-014 3.37934e-015
rhumerus 9.29955 -10.1198 -44.6732
rradius 94.0225
rwrist 5.48599
rhand -37.7485 -37.5265
rfingers 7.12502
rthumb -10.7966 -67.229
lclavicle 2.0568e-014 3.37934e-015
lhumerus -46.8671 -3.44624 87.0282
lradius 47.5675
lwrist -1.51529
lhand -5.46892 -23.8126
lfingers 7.12502
lthumb 20.3428 5.14198
rfemur 0 0 0
rtibia 0
rfoot 0 0
rtoes 0
lfemur -7.28581 -6.06605 -9.354
ltibia 23.089
lfoot -23.4373 13.4618
ltoes -56.0519
313
root -0.793644 18.7279 6.14562 4.12989 -0.708441 -4.22855
lowerback 6.0607 0.752077 4.9866
upperback -2.38419 1.43512 0.152755
thorax -5.77838 0.525744 -2.79685
lowerneck -4.73646 -11.3345 -9.65899
upperneck 5.03851 -15.1447 9.23635
head 3.70605 -7.40348 3.44963
rclavicle -3.05694e-014 -7.55382e-015
rhumerus 8.6983 -9.34242 -46.0339
rradius 94.577
rwrist 4.51583
rhand -37.3401 -36.735
rfingers 7.12502
rthumb -10.4027 -66.4577
lclavicle -3.05694e-014 -7.55382e-015
lhumerus -46.8963 -3.09672 86.8317
lradius 47.5837
lwrist -1.33151
lhand -5.96155 -24.172
lfingers 7.12502
lthumb 19.8693 4.83233
rfemur 0 0 0
rtibia 0
rfoot 0 0
rtoes 0
lfemur -7.19782 -6.02572 -9.33161
ltibia 23.15
lfoot -23.3984 13.3663
ltoes -56.0531
314
root -0.798573 18.726 6.14927 4.01998 -0.706831 -4.19692
lowerback 6.0313 0.592086 4.87335
upperback -2.35319 1.20855 0.142755
thorax -5.74938 0.419213 -2.7189
lowerneck -3.78299 -12.1507 -10.4103
upperneck 4.66413 -16.2842 9.57316
head 3.63327 -7.99884 3.61742
rclavicle 1.53623e-014 1.25234e-014
rhumerus 8.34178 -8.24036 -47.3573
rradius 95.0607
rwrist 3.18789
rhand -36.7085 -36.2125
rfingers 7.12502
rthumb -9.79344 -65.9648
lclavicle 1.53623e-014 1.25234e-014
lhumerus -46.9289 -2.6872 86.6531
lradius 47.4954
lwrist -1.35387
lhand -6.19692 -24.2823
lfingers 7.12502
lthumb 19.643 4.74533
rfemur 0 0 0
rtibia 0
rfoot 0 0
rtoes 0
lfemur -7.0933 -5.96901 -9.37405
ltibia 23.197
lfoot -23.3546 13.3997
ltoes -56.118
315
root -0.803385 18.7248 6.15418 3.94052 -0.779206 -4.13948
lowerback 5.96242 0.423159 4.66263
upperback -2.33076 0.960128 0.133181
thorax -5.70883 0.305564 -2.58298
lowerneck -2.75245 -13.0591 -11.3059
upperneck 4.29267 -17.5773 10.074
head 3.60491 -8.6705 3.84
rclavicle 1.12935e-014 1.98785e-016
rhumerus 8.27993 -6.83751 -48.5947
rradius 95.3288
rwrist 1.85842
rhand -36.2803 -36.1256
rfingers 7.12502
rthumb -9.3803 -65.8968
lclavicle 1.12935e-014 1.98785e-016
lhumerus -47.0531 -2.25565 86.4687
lradius 47.4359
lwrist -1.42099
lhand -6.19643 -24.1691
lfingers 7.12502
lthumb 19.6435 4.85848
rfemur 0 0 0
rtibia 0
rfoot 0 0
rtoes 0
lfemur -6.98175 -5.86453 -9.44483
ltibia 23.2192
lfoot -23.3261 13.4726
ltoes -56.2731
316
root -0.806804 18.7233 6.16023 3.8727 -0.992685 -4.07743
lowerback 5.8614 0.27557 4.43025
upperback -2.30044 0.735291 0.0932498
thorax -5.6379 0.204419 -2.46895
lowerneck -1.59259 -14.0667 -12.2777
upperneck 3.85026 -19.0421 10.736
head 3.59469 -9.42998 4.10701
rclavicle -1.79341e-014 -3.97569e-016
rhumerus 8.02969 -5.40158 -50.0833
rradius 95.591
rwrist 0.902552
rhand -36.0149 -35.7543
rfingers 7.12502
rthumb -9.12417 -65.5369
lclavicle -1.79341e-014 -3.97569e-016
lhumerus -47.2296 -1.75225 86.2231
lradius 47.3549
lwrist -1.53311
lhand -5.92631 -24.0424
lfingers 7.12502
lthumb 19.9032 4.95845
rfemur 0 0 0
rtibia 0
rfoot 0 0
rtoes 0
lfemur -6.82068 -5.73001 -9.53801
ltibia 23.2132
lfoot -23.3803 13.508
ltoes -56.1932
317
root -0.808318 18.721 6.16565 3.81419 -1.33099 -4.05867
lowerback 5.78802 0.121019 4.20176
upperback -2.28979 0.504186 0.0562151
thorax -5.60257 0.0987432 -2.35429
lowerneck -0.374452 -15.0924 -13.1573
upperneck 3.35243 -20.5628 11.4612
head 3.58646 -10.2196 4.3721
rclavicle 5.96354e-015 -3.97569e-016
rhumerus 7.42241 -3.95952 -51.9488
rradius 96.0214
rwrist 0.228683
rhand -35.7138 -35.2625
rfingers 7.12502
rthumb -8.83359 -65.0577
lclavicle 5.96354e-015 -3.97569e-016
lhumerus -47.4904 -1.05857 85.8823
lradius 47.1799
lwrist -1.76719
lhand -5.62114 -24.0406
lfingers 7.12502
lthumb 20.1965 4.92951
rfemur 0 0 0
rtibia 0
rfoot 0 0
rtoes 0
lfemur -6.62371 -5.64518 -9.61035
ltibia 23.1894
lfoot -23.5003 13.6584
ltoes -56.0016
